<mxfile host="app.diagrams.net" agent="Mozilla/5.0 (Windows NT 10.0; Win64; x64) AppleWebKit/537.36 (KHTML, like Gecko) Chrome/132.0.0.0 Safari/537.36" version="26.0.11">
  <diagram name="Page-1" id="bM_CzIiR2QHTIiz8ty1g">
    <mxGraphModel dx="1786" dy="474" grid="1" gridSize="10" guides="1" tooltips="1" connect="1" arrows="1" fold="1" page="1" pageScale="1" pageWidth="850" pageHeight="1100" math="0" shadow="0">
      <root>
        <mxCell id="0" />
        <mxCell id="1" parent="0" />
        <mxCell id="BUCk2BUv3J7hgv6rjrOT-18" value="" style="rounded=1;whiteSpace=wrap;html=1;" vertex="1" parent="1">
          <mxGeometry x="395" y="260" width="375" height="170" as="geometry" />
        </mxCell>
        <mxCell id="BUCk2BUv3J7hgv6rjrOT-17" value="" style="rounded=1;whiteSpace=wrap;html=1;" vertex="1" parent="1">
          <mxGeometry x="-30" y="70" width="380" height="160" as="geometry" />
        </mxCell>
        <mxCell id="BUCk2BUv3J7hgv6rjrOT-1" value="" style="image;html=1;image=img/lib/clip_art/finance/Safe_128x128.png" vertex="1" parent="1">
          <mxGeometry x="120" y="85" width="110" height="90" as="geometry" />
        </mxCell>
        <mxCell id="BUCk2BUv3J7hgv6rjrOT-4" value="&lt;b&gt;Sentinel Safe&lt;/b&gt;" style="text;html=1;align=center;verticalAlign=middle;resizable=0;points=[];autosize=1;strokeColor=none;fillColor=none;" vertex="1" parent="1">
          <mxGeometry x="120" y="180" width="100" height="30" as="geometry" />
        </mxCell>
        <mxCell id="BUCk2BUv3J7hgv6rjrOT-15" style="edgeStyle=orthogonalEdgeStyle;rounded=0;orthogonalLoop=1;jettySize=auto;html=1;dashed=1;" edge="1" parent="1" source="BUCk2BUv3J7hgv6rjrOT-5">
          <mxGeometry relative="1" as="geometry">
            <mxPoint x="570" y="290" as="targetPoint" />
          </mxGeometry>
        </mxCell>
        <mxCell id="BUCk2BUv3J7hgv6rjrOT-5" value="" style="image;aspect=fixed;html=1;points=[];align=center;fontSize=12;image=img/lib/azure2/identity/Groups.svg;" vertex="1" parent="1">
          <mxGeometry x="260" y="117" width="68" height="56.00000000000001" as="geometry" />
        </mxCell>
        <mxCell id="BUCk2BUv3J7hgv6rjrOT-9" value="" style="image;html=1;image=img/lib/clip_art/finance/Safe_128x128.png" vertex="1" parent="1">
          <mxGeometry x="400" y="290" width="110" height="90" as="geometry" />
        </mxCell>
        <mxCell id="BUCk2BUv3J7hgv6rjrOT-8" value="&lt;b&gt;Sentinel Safe group&lt;/b&gt;" style="text;html=1;align=center;verticalAlign=middle;resizable=0;points=[];autosize=1;strokeColor=none;fillColor=none;" vertex="1" parent="1">
          <mxGeometry x="220" y="180" width="140" height="30" as="geometry" />
        </mxCell>
        <mxCell id="BUCk2BUv3J7hgv6rjrOT-10" value="&lt;b&gt;Team 1 Safe&lt;/b&gt;" style="text;html=1;align=center;verticalAlign=middle;resizable=0;points=[];autosize=1;strokeColor=none;fillColor=none;" vertex="1" parent="1">
          <mxGeometry x="405" y="380" width="90" height="30" as="geometry" />
        </mxCell>
        <mxCell id="BUCk2BUv3J7hgv6rjrOT-11" value="" style="image;aspect=fixed;html=1;points=[];align=center;fontSize=12;image=img/lib/azure2/identity/Groups.svg;" vertex="1" parent="1">
          <mxGeometry x="540" y="307" width="68" height="56" as="geometry" />
        </mxCell>
        <mxCell id="BUCk2BUv3J7hgv6rjrOT-12" value="&lt;b&gt;Team1 Safe group&lt;/b&gt;" style="text;html=1;align=center;verticalAlign=middle;resizable=0;points=[];autosize=1;strokeColor=none;fillColor=none;" vertex="1" parent="1">
          <mxGeometry x="505" y="380" width="130" height="30" as="geometry" />
        </mxCell>
        <mxCell id="BUCk2BUv3J7hgv6rjrOT-16" value="To be added inside group" style="text;html=1;align=center;verticalAlign=middle;resizable=0;points=[];autosize=1;strokeColor=none;fillColor=none;" vertex="1" parent="1">
          <mxGeometry x="400" y="117" width="160" height="30" as="geometry" />
        </mxCell>
        <mxCell id="BUCk2BUv3J7hgv6rjrOT-19" value="" style="image;html=1;image=img/lib/clip_art/computers/Server_128x128.png" vertex="1" parent="1">
          <mxGeometry x="-10" y="80" width="80" height="80" as="geometry" />
        </mxCell>
        <mxCell id="BUCk2BUv3J7hgv6rjrOT-20" value="" style="image;html=1;image=img/lib/clip_art/computers/Server_128x128.png" vertex="1" parent="1">
          <mxGeometry y="90" width="80" height="80" as="geometry" />
        </mxCell>
        <mxCell id="BUCk2BUv3J7hgv6rjrOT-21" value="" style="image;html=1;image=img/lib/clip_art/computers/Server_128x128.png" vertex="1" parent="1">
          <mxGeometry x="10" y="100" width="80" height="80" as="geometry" />
        </mxCell>
        <mxCell id="BUCk2BUv3J7hgv6rjrOT-22" value="" style="image;html=1;image=img/lib/clip_art/computers/Server_128x128.png" vertex="1" parent="1">
          <mxGeometry x="20" y="110" width="80" height="80" as="geometry" />
        </mxCell>
        <mxCell id="BUCk2BUv3J7hgv6rjrOT-23" value="&lt;b&gt;Servers&lt;/b&gt;" style="text;html=1;align=center;verticalAlign=middle;resizable=0;points=[];autosize=1;strokeColor=none;fillColor=none;" vertex="1" parent="1">
          <mxGeometry x="5" y="190" width="70" height="30" as="geometry" />
        </mxCell>
        <mxCell id="BUCk2BUv3J7hgv6rjrOT-24" value="" style="image;html=1;image=img/lib/clip_art/computers/Server_128x128.png" vertex="1" parent="1">
          <mxGeometry x="635" y="270" width="80" height="80" as="geometry" />
        </mxCell>
        <mxCell id="BUCk2BUv3J7hgv6rjrOT-25" value="" style="image;html=1;image=img/lib/clip_art/computers/Server_128x128.png" vertex="1" parent="1">
          <mxGeometry x="645" y="280" width="80" height="80" as="geometry" />
        </mxCell>
        <mxCell id="BUCk2BUv3J7hgv6rjrOT-26" value="" style="image;html=1;image=img/lib/clip_art/computers/Server_128x128.png" vertex="1" parent="1">
          <mxGeometry x="655" y="290" width="80" height="80" as="geometry" />
        </mxCell>
        <mxCell id="BUCk2BUv3J7hgv6rjrOT-27" value="" style="image;html=1;image=img/lib/clip_art/computers/Server_128x128.png" vertex="1" parent="1">
          <mxGeometry x="665" y="300" width="80" height="80" as="geometry" />
        </mxCell>
        <mxCell id="BUCk2BUv3J7hgv6rjrOT-28" value="&lt;b&gt;Servers&lt;/b&gt;" style="text;html=1;align=center;verticalAlign=middle;resizable=0;points=[];autosize=1;strokeColor=none;fillColor=none;" vertex="1" parent="1">
          <mxGeometry x="675" y="380" width="70" height="30" as="geometry" />
        </mxCell>
        <mxCell id="BUCk2BUv3J7hgv6rjrOT-30" style="edgeStyle=orthogonalEdgeStyle;rounded=0;orthogonalLoop=1;jettySize=auto;html=1;entryX=0.459;entryY=1.036;entryDx=0;entryDy=0;entryPerimeter=0;" edge="1" parent="1" target="BUCk2BUv3J7hgv6rjrOT-8">
          <mxGeometry relative="1" as="geometry">
            <mxPoint x="130" y="360" as="sourcePoint" />
          </mxGeometry>
        </mxCell>
        <mxCell id="BUCk2BUv3J7hgv6rjrOT-31" value="User account created to be&lt;div&gt;&amp;nbsp;added inside group&lt;/div&gt;" style="text;html=1;align=center;verticalAlign=middle;resizable=0;points=[];autosize=1;strokeColor=none;fillColor=none;" vertex="1" parent="1">
          <mxGeometry x="115" y="323" width="170" height="40" as="geometry" />
        </mxCell>
        <mxCell id="BUCk2BUv3J7hgv6rjrOT-36" value="" style="points=[];aspect=fixed;html=1;align=center;shadow=0;dashed=0;fillColor=#FF6A00;strokeColor=none;shape=mxgraph.alibaba_cloud.user;" vertex="1" parent="1">
          <mxGeometry x="70" y="330" width="60" height="60" as="geometry" />
        </mxCell>
      </root>
    </mxGraphModel>
  </diagram>
</mxfile>
